<mxfile host="app.diagrams.net" agent="Mozilla/5.0 (Windows NT 10.0; Win64; x64) AppleWebKit/537.36 (KHTML, like Gecko) Chrome/131.0.0.0 Safari/537.36" version="24.8.6">
  <diagram name="Pagina-1" id="4i60yUFyoCyMknwFuSTt">
    <mxGraphModel dx="989" dy="514" grid="1" gridSize="10" guides="1" tooltips="1" connect="1" arrows="1" fold="1" page="1" pageScale="1" pageWidth="827" pageHeight="1169" math="0" shadow="0">
      <root>
        <mxCell id="0" />
        <mxCell id="1" parent="0" />
        <mxCell id="heVP6b6KW8TpRTy1tYQo-33" value="Utente" style="rounded=0;whiteSpace=wrap;html=1;" parent="1" vertex="1">
          <mxGeometry x="730" y="475" width="120" height="60" as="geometry" />
        </mxCell>
        <mxCell id="heVP6b6KW8TpRTy1tYQo-35" style="edgeStyle=orthogonalEdgeStyle;rounded=0;orthogonalLoop=1;jettySize=auto;html=1;exitX=0;exitY=0.5;exitDx=0;exitDy=0;entryX=1;entryY=0.5;entryDx=0;entryDy=0;endArrow=none;endFill=0;" parent="1" source="heVP6b6KW8TpRTy1tYQo-36" target="heVP6b6KW8TpRTy1tYQo-50" edge="1">
          <mxGeometry relative="1" as="geometry" />
        </mxCell>
        <mxCell id="heVP6b6KW8TpRTy1tYQo-36" value="Scrive" style="rhombus;whiteSpace=wrap;html=1;" parent="1" vertex="1">
          <mxGeometry x="750" y="305" width="80" height="80" as="geometry" />
        </mxCell>
        <mxCell id="heVP6b6KW8TpRTy1tYQo-37" style="edgeStyle=orthogonalEdgeStyle;rounded=0;orthogonalLoop=1;jettySize=auto;html=1;exitX=0.5;exitY=1;exitDx=0;exitDy=0;entryX=0.667;entryY=0;entryDx=0;entryDy=0;entryPerimeter=0;endArrow=none;endFill=0;" parent="1" source="heVP6b6KW8TpRTy1tYQo-36" edge="1">
          <mxGeometry relative="1" as="geometry">
            <mxPoint x="790.04" y="475" as="targetPoint" />
          </mxGeometry>
        </mxCell>
        <mxCell id="heVP6b6KW8TpRTy1tYQo-39" style="edgeStyle=orthogonalEdgeStyle;rounded=0;orthogonalLoop=1;jettySize=auto;html=1;exitX=0.75;exitY=1;exitDx=0;exitDy=0;entryX=0;entryY=0.5;entryDx=0;entryDy=0;endArrow=none;endFill=0;" parent="1" source="heVP6b6KW8TpRTy1tYQo-50" target="heVP6b6KW8TpRTy1tYQo-41" edge="1">
          <mxGeometry relative="1" as="geometry">
            <mxPoint x="429.9655172413793" y="455" as="targetPoint" />
            <mxPoint x="490" y="490" as="sourcePoint" />
          </mxGeometry>
        </mxCell>
        <mxCell id="heVP6b6KW8TpRTy1tYQo-40" style="edgeStyle=orthogonalEdgeStyle;rounded=0;orthogonalLoop=1;jettySize=auto;html=1;exitX=1;exitY=0.5;exitDx=0;exitDy=0;entryX=0;entryY=0.25;entryDx=0;entryDy=0;endArrow=none;endFill=0;" parent="1" source="heVP6b6KW8TpRTy1tYQo-41" edge="1">
          <mxGeometry relative="1" as="geometry">
            <mxPoint x="730" y="490" as="targetPoint" />
          </mxGeometry>
        </mxCell>
        <mxCell id="heVP6b6KW8TpRTy1tYQo-41" value="Filtra" style="rhombus;whiteSpace=wrap;html=1;" parent="1" vertex="1">
          <mxGeometry x="570" y="415" width="80" height="80" as="geometry" />
        </mxCell>
        <mxCell id="heVP6b6KW8TpRTy1tYQo-44" value="" style="endArrow=oval;html=1;rounded=0;endFill=1;exitX=1.015;exitY=0.181;exitDx=0;exitDy=0;exitPerimeter=0;" parent="1" edge="1">
          <mxGeometry width="50" height="50" relative="1" as="geometry">
            <mxPoint x="850" y="485.86" as="sourcePoint" />
            <mxPoint x="868.2" y="486" as="targetPoint" />
          </mxGeometry>
        </mxCell>
        <mxCell id="heVP6b6KW8TpRTy1tYQo-45" value="Username" style="text;html=1;align=center;verticalAlign=middle;resizable=0;points=[];autosize=1;strokeColor=none;fillColor=none;" parent="1" vertex="1">
          <mxGeometry x="862" y="471" width="80" height="30" as="geometry" />
        </mxCell>
        <mxCell id="heVP6b6KW8TpRTy1tYQo-46" value="" style="endArrow=oval;html=1;rounded=0;endFill=0;exitX=1.015;exitY=0.181;exitDx=0;exitDy=0;exitPerimeter=0;" parent="1" edge="1">
          <mxGeometry width="50" height="50" relative="1" as="geometry">
            <mxPoint x="850" y="499.86" as="sourcePoint" />
            <mxPoint x="868.2" y="500" as="targetPoint" />
          </mxGeometry>
        </mxCell>
        <mxCell id="heVP6b6KW8TpRTy1tYQo-47" value="E-mail" style="text;html=1;align=center;verticalAlign=middle;resizable=0;points=[];autosize=1;strokeColor=none;fillColor=none;" parent="1" vertex="1">
          <mxGeometry x="862" y="485" width="60" height="30" as="geometry" />
        </mxCell>
        <mxCell id="heVP6b6KW8TpRTy1tYQo-48" value="" style="endArrow=oval;html=1;rounded=0;endFill=0;exitX=1.015;exitY=0.181;exitDx=0;exitDy=0;exitPerimeter=0;" parent="1" edge="1">
          <mxGeometry width="50" height="50" relative="1" as="geometry">
            <mxPoint x="850" y="515.86" as="sourcePoint" />
            <mxPoint x="868.2" y="516" as="targetPoint" />
          </mxGeometry>
        </mxCell>
        <mxCell id="heVP6b6KW8TpRTy1tYQo-49" value="Password" style="text;html=1;align=center;verticalAlign=middle;resizable=0;points=[];autosize=1;strokeColor=none;fillColor=none;" parent="1" vertex="1">
          <mxGeometry x="862" y="501" width="80" height="30" as="geometry" />
        </mxCell>
        <mxCell id="heVP6b6KW8TpRTy1tYQo-50" value="Messaggio" style="rounded=0;whiteSpace=wrap;html=1;" parent="1" vertex="1">
          <mxGeometry x="370" y="315" width="120" height="60" as="geometry" />
        </mxCell>
        <mxCell id="heVP6b6KW8TpRTy1tYQo-57" value="" style="endArrow=oval;html=1;rounded=0;endFill=1;entryX=0.501;entryY=0.98;entryDx=0;entryDy=0;entryPerimeter=0;" parent="1" edge="1">
          <mxGeometry width="50" height="50" relative="1" as="geometry">
            <mxPoint x="400" y="315" as="sourcePoint" />
            <mxPoint x="400.0799999999999" y="295" as="targetPoint" />
          </mxGeometry>
        </mxCell>
        <mxCell id="heVP6b6KW8TpRTy1tYQo-58" value="ID" style="text;html=1;align=center;verticalAlign=middle;resizable=0;points=[];autosize=1;strokeColor=none;fillColor=none;rotation=-90;" parent="1" vertex="1">
          <mxGeometry x="380" y="265" width="40" height="30" as="geometry" />
        </mxCell>
        <mxCell id="heVP6b6KW8TpRTy1tYQo-59" value="" style="endArrow=oval;html=1;rounded=0;endFill=0;exitX=0.419;exitY=-0.005;exitDx=0;exitDy=0;exitPerimeter=0;" parent="1" source="heVP6b6KW8TpRTy1tYQo-50" edge="1">
          <mxGeometry width="50" height="50" relative="1" as="geometry">
            <mxPoint x="429.53999999999996" y="304.9999999999998" as="sourcePoint" />
            <mxPoint x="420" y="295" as="targetPoint" />
          </mxGeometry>
        </mxCell>
        <mxCell id="heVP6b6KW8TpRTy1tYQo-60" value="Contenuto" style="text;html=1;align=center;verticalAlign=middle;resizable=0;points=[];autosize=1;strokeColor=none;fillColor=none;rotation=-90;" parent="1" vertex="1">
          <mxGeometry x="380" y="245" width="80" height="30" as="geometry" />
        </mxCell>
        <mxCell id="heVP6b6KW8TpRTy1tYQo-67" value="" style="endArrow=oval;html=1;rounded=0;endFill=0;exitX=0.419;exitY=-0.005;exitDx=0;exitDy=0;exitPerimeter=0;" parent="1" edge="1">
          <mxGeometry width="50" height="50" relative="1" as="geometry">
            <mxPoint x="440" y="315" as="sourcePoint" />
            <mxPoint x="440" y="295" as="targetPoint" />
          </mxGeometry>
        </mxCell>
        <mxCell id="heVP6b6KW8TpRTy1tYQo-68" value="Mittente" style="text;html=1;align=center;verticalAlign=middle;resizable=0;points=[];autosize=1;strokeColor=none;fillColor=none;rotation=-90;" parent="1" vertex="1">
          <mxGeometry x="405" y="251" width="70" height="30" as="geometry" />
        </mxCell>
        <mxCell id="heVP6b6KW8TpRTy1tYQo-71" value="" style="endArrow=oval;html=1;rounded=0;endFill=0;exitX=0.419;exitY=-0.005;exitDx=0;exitDy=0;exitPerimeter=0;strokeWidth=1;" parent="1" edge="1">
          <mxGeometry width="50" height="50" relative="1" as="geometry">
            <mxPoint x="460" y="315" as="sourcePoint" />
            <mxPoint x="460" y="295" as="targetPoint" />
          </mxGeometry>
        </mxCell>
        <mxCell id="heVP6b6KW8TpRTy1tYQo-73" value="&lt;font style=&quot;font-size: 6px;&quot;&gt;Data&lt;/font&gt;" style="ellipse;whiteSpace=wrap;html=1;" parent="1" vertex="1">
          <mxGeometry x="450" y="286" width="20" height="15" as="geometry" />
        </mxCell>
        <mxCell id="heVP6b6KW8TpRTy1tYQo-74" value="" style="endArrow=oval;html=1;rounded=0;endFill=0;exitX=0.419;exitY=-0.005;exitDx=0;exitDy=0;exitPerimeter=0;" parent="1" edge="1">
          <mxGeometry width="50" height="50" relative="1" as="geometry">
            <mxPoint x="459.86" y="286" as="sourcePoint" />
            <mxPoint x="490" y="270" as="targetPoint" />
          </mxGeometry>
        </mxCell>
        <mxCell id="heVP6b6KW8TpRTy1tYQo-75" value="" style="endArrow=oval;html=1;rounded=0;endFill=0;exitX=1;exitY=0;exitDx=0;exitDy=0;" parent="1" source="heVP6b6KW8TpRTy1tYQo-73" edge="1">
          <mxGeometry width="50" height="50" relative="1" as="geometry">
            <mxPoint x="480" y="290" as="sourcePoint" />
            <mxPoint x="490" y="286" as="targetPoint" />
          </mxGeometry>
        </mxCell>
        <mxCell id="heVP6b6KW8TpRTy1tYQo-76" value="" style="endArrow=oval;html=1;rounded=0;endFill=0;exitX=1;exitY=0.5;exitDx=0;exitDy=0;" parent="1" source="heVP6b6KW8TpRTy1tYQo-73" edge="1">
          <mxGeometry width="50" height="50" relative="1" as="geometry">
            <mxPoint x="490" y="295" as="sourcePoint" />
            <mxPoint x="490" y="300" as="targetPoint" />
          </mxGeometry>
        </mxCell>
        <mxCell id="heVP6b6KW8TpRTy1tYQo-77" value="&lt;font style=&quot;font-size: 10px;&quot;&gt;Giorno&lt;/font&gt;" style="text;html=1;align=center;verticalAlign=middle;whiteSpace=wrap;rounded=0;" parent="1" vertex="1">
          <mxGeometry x="480" y="254" width="60" height="30" as="geometry" />
        </mxCell>
        <mxCell id="heVP6b6KW8TpRTy1tYQo-79" value="&lt;font style=&quot;font-size: 10px;&quot;&gt;Mese&lt;/font&gt;" style="text;html=1;align=center;verticalAlign=middle;whiteSpace=wrap;rounded=0;" parent="1" vertex="1">
          <mxGeometry x="478" y="271" width="60" height="30" as="geometry" />
        </mxCell>
        <mxCell id="heVP6b6KW8TpRTy1tYQo-80" value="&lt;font style=&quot;font-size: 10px;&quot;&gt;Anno&lt;/font&gt;" style="text;html=1;align=center;verticalAlign=middle;whiteSpace=wrap;rounded=0;" parent="1" vertex="1">
          <mxGeometry x="478" y="285" width="60" height="30" as="geometry" />
        </mxCell>
        <mxCell id="heVP6b6KW8TpRTy1tYQo-81" value="" style="endArrow=oval;html=1;rounded=0;endFill=0;exitX=0.419;exitY=-0.005;exitDx=0;exitDy=0;exitPerimeter=0;strokeWidth=1;" parent="1" edge="1">
          <mxGeometry width="50" height="50" relative="1" as="geometry">
            <mxPoint x="380" y="315" as="sourcePoint" />
            <mxPoint x="380" y="295" as="targetPoint" />
          </mxGeometry>
        </mxCell>
        <mxCell id="heVP6b6KW8TpRTy1tYQo-82" value="&lt;font style=&quot;font-size: 6px;&quot;&gt;Orario&lt;/font&gt;" style="ellipse;whiteSpace=wrap;html=1;" parent="1" vertex="1">
          <mxGeometry x="370" y="286" width="20" height="15" as="geometry" />
        </mxCell>
        <mxCell id="heVP6b6KW8TpRTy1tYQo-83" value="" style="endArrow=oval;html=1;rounded=0;endFill=0;exitX=0.003;exitY=0.633;exitDx=0;exitDy=0;exitPerimeter=0;" parent="1" source="heVP6b6KW8TpRTy1tYQo-82" edge="1">
          <mxGeometry width="50" height="50" relative="1" as="geometry">
            <mxPoint x="320" y="290.5" as="sourcePoint" />
            <mxPoint x="354" y="296" as="targetPoint" />
          </mxGeometry>
        </mxCell>
        <mxCell id="heVP6b6KW8TpRTy1tYQo-84" value="" style="endArrow=oval;html=1;rounded=0;endFill=0;exitX=0;exitY=0;exitDx=0;exitDy=0;" parent="1" source="heVP6b6KW8TpRTy1tYQo-82" edge="1">
          <mxGeometry width="50" height="50" relative="1" as="geometry">
            <mxPoint x="370" y="281" as="sourcePoint" />
            <mxPoint x="360" y="280" as="targetPoint" />
          </mxGeometry>
        </mxCell>
        <mxCell id="heVP6b6KW8TpRTy1tYQo-85" value="&lt;font style=&quot;font-size: 10px;&quot;&gt;Ora&lt;/font&gt;" style="text;html=1;align=center;verticalAlign=middle;whiteSpace=wrap;rounded=0;" parent="1" vertex="1">
          <mxGeometry x="316" y="263" width="60" height="30" as="geometry" />
        </mxCell>
        <mxCell id="heVP6b6KW8TpRTy1tYQo-86" value="&lt;font style=&quot;font-size: 10px;&quot;&gt;Minuti&lt;/font&gt;" style="text;html=1;align=center;verticalAlign=middle;whiteSpace=wrap;rounded=0;" parent="1" vertex="1">
          <mxGeometry x="306" y="280" width="60" height="30" as="geometry" />
        </mxCell>
      </root>
    </mxGraphModel>
  </diagram>
</mxfile>
